<?xml version="1.0" encoding="UTF-8"?>
<svg version="1.1" xmlns="http://www.w3.org/2000/svg" width="130" height="50">
<path d="M0 0 C356.4 0 712.8 0 1080 0 C1080 356.4 1080 712.8 1080 1080 C723.6 1080 367.2 1080 0 1080 C0 723.6 0 367.2 0 0 Z " fill="#FEFEFE" transform="translate(0,0)"/>
<path d="M0 0 C-16.40695013 9.90870573 -32.77296059 19.57555756 -50 28 C-50.66 28.33 -51.32 28.66 -52 29 C-52.71534584 43.04499539 -53.17463328 57.07211762 -53.38842773 71.13330078 C-53.64928189 88.03301604 -54.00483121 104.92909786 -54.47265625 121.82421875 C-54.49352798 122.58589607 -54.51439972 123.34757339 -54.53590393 124.13233185 C-54.74988331 131.93210347 -54.97209109 139.73143503 -55.22638321 147.53000641 C-55.35200682 151.39617156 -55.47249656 155.26248149 -55.58984375 159.12890625 C-55.61289078 159.88623802 -55.63593781 160.64356979 -55.65968323 161.42385101 C-55.97108961 171.99446195 -55.97445121 182.51698356 -55.75390625 193.08984375 C-55.70778984 196.73108541 -55.6672168 200.37234827 -55.62817383 204.01367188 C-55.56429698 207.34381634 -55.40978237 210.6614933 -55.25195312 213.98828125 C-54.92306539 227.56030554 -54.92306539 227.56030554 -58.51992798 231.78540039 C-62.52247318 235.04356171 -67.02136272 237.06598302 -71.76260376 239.02749634 C-75.09692542 240.47678814 -78.04405411 242.33247529 -81.12890625 244.2578125 C-82.20205078 244.90234375 -83.27519531 245.546875 -84.38085938 246.2109375 C-85.43080078 246.84257812 -86.48074219 247.47421875 -87.5625 248.125 C-88.67818359 248.7953125 -89.79386719 249.465625 -90.94335938 250.15625 C-93.62932658 251.77013587 -96.31487349 253.38471594 -99 255 C-97.4593888 262.87235395 -94.98238516 270.29728687 -92.375 277.875 C-91.54533626 280.2876418 -90.71961555 282.70164429 -89.8984375 285.1171875 C-89.53411621 286.17534668 -89.16979492 287.23350586 -88.79443359 288.32373047 C-88 291 -88 291 -88 294 C-87.42556152 293.93941406 -86.85112305 293.87882812 -86.25927734 293.81640625 C-83.63150793 293.54108082 -81.00326998 293.27050345 -78.375 293 C-77.47136719 292.90460938 -76.56773437 292.80921875 -75.63671875 292.7109375 C-74.75371094 292.62070312 -73.87070312 292.53046875 -72.9609375 292.4375 C-71.75123291 292.31181641 -71.75123291 292.31181641 -70.51708984 292.18359375 C-67.68492407 291.97701871 -64.83968946 292 -62 292 C-62 310.81 -62 329.62 -62 349 C-80.15 349 -98.3 349 -117 349 C-117 247.36 -117 145.72 -117 41 C-130.42139718 42.34213972 -143.81014796 43.7652176 -157.19506836 45.40087891 C-159.38886616 45.66818941 -161.58307132 45.931931 -163.77734375 46.1953125 C-165.04827881 46.35016113 -166.31921387 46.50500977 -167.62866211 46.66455078 C-170.45421193 46.94569391 -173.16500952 47.06959934 -176 47 C-162.73065223 32.90933864 -143.89964814 23.20177423 -126.3125 15.625 C-125.60174316 15.31530273 -124.89098633 15.00560547 -124.15869141 14.68652344 C-110.93697853 9.21936747 -98.71340075 7.39766244 -84.5625 7.3125 C-81.6053621 7.27325313 -78.64840144 7.22449798 -75.69140625 7.17578125 C-74.9710318 7.16531769 -74.25065735 7.15485413 -73.50845337 7.14407349 C-63.96237307 6.98513533 -54.4207111 6.61058342 -45 5 C-43.26763414 4.84424332 -41.5329196 4.71271035 -39.796875 4.60546875 C-29.12068909 3.87390808 -18.82896265 2.91704149 -8.44628906 0.2331543 C-3.26854505 -1.08951502 -3.26854505 -1.08951502 0 0 Z " fill="#020202" transform="translate(566,247)"/>
<path d="M0 0 C1.27705811 -0.00926514 2.55411621 -0.01853027 3.86987305 -0.02807617 C14.850434 0.00852331 25.52519098 1.20846518 36.0625 4.375 C36.76648926 4.58600342 37.47047852 4.79700684 38.19580078 5.0144043 C63.81263563 13.06970916 84.93883722 29.49695718 97.4375 53.44140625 C104.38758194 67.63773839 107.32147194 80.54534041 107.0625 96.375 C107.05734375 97.674375 107.0521875 98.97375 107.046875 100.3125 C106.968117 109.78314899 106.968117 109.78314899 105.8125 113.25 C90.3025 113.25 74.7925 113.25 58.8125 113.25 C57.8225 104.835 57.8225 104.835 56.8125 96.25 C49.17701309 69.52579583 33.04552973 50.50229208 9.2265625 36.7578125 C2.12436391 32.95896209 -5.49938809 30.55223242 -13.1875 28.25 C-14.00605469 27.99992187 -14.82460938 27.74984375 -15.66796875 27.4921875 C-21.14025106 26.11685283 -26.58677669 26.13115602 -32.19140625 26.14453125 C-33.06565247 26.14578003 -33.93989868 26.14702881 -34.84063721 26.14831543 C-44.72199593 26.20241166 -54.57301066 26.70863392 -64.4375 27.25 C-66.27341235 27.34683219 -68.10934988 27.44318808 -69.9453125 27.5390625 C-74.35968271 27.77058933 -78.77366859 28.00842786 -83.1875 28.25 C-83.18226318 29.02561279 -83.17702637 29.80122559 -83.17163086 30.6003418 C-83.07723087 46.99128714 -83.18264264 63.36426733 -83.625 79.75 C-83.6544722 80.88989883 -83.6544722 80.88989883 -83.68453979 82.05282593 C-83.7430421 84.27492109 -83.806174 86.49683381 -83.87109375 88.71875 C-83.90775146 89.98138672 -83.94440918 91.24402344 -83.98217773 92.54492188 C-84.28357988 99.45172587 -84.75625538 106.35008603 -85.1875 113.25 C-101.0275 113.25 -116.8675 113.25 -133.1875 113.25 C-133.26335644 86.54853208 -133.31296129 59.92582712 -132.1875 33.25 C-136.31360739 33.65762567 -140.43957683 34.06661454 -144.56542969 34.47680664 C-145.96578415 34.61584321 -147.36617412 34.75452266 -148.76660156 34.89282227 C-157.80103482 35.76596831 -157.80103482 35.76596831 -166.8125 36.84375 C-169.81474198 37.20513098 -172.66797548 37.35443784 -175.6875 37.3125 C-176.5434375 37.30347656 -177.399375 37.29445313 -178.28125 37.28515625 C-178.9103125 37.27355469 -179.539375 37.26195312 -180.1875 37.25 C-176.40320086 34.0665256 -172.41559345 31.47163328 -168.15625 28.984375 C-167.48388306 28.58728333 -166.81151611 28.19019165 -166.11877441 27.78106689 C-163.97714538 26.51705621 -161.83250681 25.25826854 -159.6875 24 C-157.58046364 22.76031018 -155.47411979 21.51951347 -153.36979675 20.27522278 C-151.97095811 19.45251659 -150.56764901 18.63736718 -149.16011047 17.82963562 C-145.98215208 15.99137856 -143.08565451 14.16951605 -140.19604492 11.88598633 C-130.17311816 4.22670819 -119.35677245 5.23455525 -107.21459961 5.39089966 C-100.93066323 5.46973281 -94.64742992 5.41853438 -88.36328125 5.3828125 C-87.12909454 5.37909134 -85.89490784 5.37537018 -84.62332153 5.37153625 C-74.75315544 5.3200848 -65.00485927 4.80341704 -55.1875 3.8125 C-54.51203125 3.74601257 -53.8365625 3.67952515 -53.140625 3.61102295 C-48.82007606 3.18276951 -44.50380406 2.71875001 -40.1875 2.25 C-26.78208162 0.8596579 -13.47590361 0.05536195 0 0 Z " fill="#020202" transform="translate(658.1875,482.75)"/>
<path d="M0 0 C15.51 0 31.02 0 47 0 C47.14961305 32.91487142 46.17540652 65.69390331 44.65945816 98.57072067 C44.56360081 100.66346731 44.46971314 102.75629403 44.37631226 104.84915161 C42.00294562 157.74508054 42.00294562 157.74508054 27 180 C34.8765416 180.02331808 42.75307489 180.04101325 50.62964249 180.05181217 C54.28826377 180.05699885 57.94686119 180.06401852 61.60546875 180.07543945 C65.14571106 180.08641991 68.68593062 180.09230845 72.22618866 180.09487724 C74.21332043 180.09758498 76.20044323 180.1053721 78.18756104 180.11329651 C85.84433006 180.11376276 93.38207063 179.77848702 101 179 C97.69432838 181.55049652 94.39237264 183.4140841 90.63671875 185.2578125 C90.01632721 185.56239883 89.39593567 185.86698517 88.75674438 186.18080139 C86.73666994 187.16852689 84.71270065 188.14783153 82.6875 189.125 C81.99659271 189.45948151 81.30568542 189.79396301 80.59384155 190.13858032 C68.29833258 196.07398159 55.85030395 201.37015151 43 206 C41.77023437 206.44859375 40.54046875 206.8971875 39.2734375 207.359375 C28.54799447 211.10649181 18.69111682 212.29162166 7.3359375 212.1953125 C6.06271637 212.1924826 4.78949524 212.18965271 3.47769165 212.18673706 C0.12725977 212.17749985 -3.22288837 212.15959792 -6.57324219 212.1373291 C-10.00583472 212.1167025 -13.43845682 212.10769976 -16.87109375 212.09765625 C-23.58080611 212.07570089 -30.29038671 212.04230259 -37 212 C-34.37992318 209.32614249 -31.93282996 207.15993757 -28.7421875 205.1953125 C-27.95199219 204.69386719 -27.16179687 204.19242188 -26.34765625 203.67578125 C-24.69710308 202.6406002 -23.04078792 201.61455098 -21.37890625 200.59765625 C-16.6927777 197.64610006 -16.6927777 197.64610006 -13.56640625 193.20703125 C-13.37949219 192.14871094 -13.19257813 191.09039063 -13 190 C-12.84917969 189.3287207 -12.69835937 188.65744141 -12.54296875 187.96582031 C-8.79888338 171.19663795 -7.42068075 154.0862271 -6 137 C-5.86573555 135.40657443 -5.73145785 133.81314999 -5.59716797 132.21972656 C-3.03449372 101.60363974 -1.90804383 71.10473418 -1.39208984 40.3894043 C-1.37346893 39.34570175 -1.35484802 38.30199921 -1.33566284 37.22666931 C-1.30137646 35.30179542 -1.26927078 33.37688026 -1.24026489 31.45191956 C-1.04812912 20.95074753 -0.47755347 10.50617634 0 0 Z " fill="#020202" transform="translate(524,675)"/>
<path d="M0 0 C18.15 0 36.3 0 55 0 C53.07291181 7.06599004 51.27389348 13.41831034 48.3125 20 C47.96799805 20.77037598 47.62349609 21.54075195 47.26855469 22.33447266 C43.43927331 30.61620496 38.57687762 37.62683098 32 44 C34.88167681 44.80652508 37.56031547 45.17515006 40.546875 45.31640625 C41.81337891 45.37924805 41.81337891 45.37924805 43.10546875 45.44335938 C43.97816406 45.48267578 44.85085938 45.52199219 45.75 45.5625 C46.63816406 45.60568359 47.52632813 45.64886719 48.44140625 45.69335938 C50.62745963 45.79913615 52.81362089 45.90122546 55 46 C55.02485364 50.02017255 55.04293238 54.04031488 55.05493164 58.06054688 C55.05993786 59.4261147 55.06674482 60.79167724 55.07543945 62.15722656 C55.08766831 64.12823118 55.09272866 66.0992761 55.09765625 68.0703125 C55.10289307 69.25383301 55.10812988 70.43735352 55.11352539 71.65673828 C55.00470177 74.86153532 54.60517483 77.85476612 54 81 C49.29768073 81.75455908 44.78806478 82.12823457 40.02734375 82.1328125 C38.71443359 82.13410156 37.40152344 82.13539063 36.04882812 82.13671875 C35.03284546 82.13357666 35.03284546 82.13357666 33.99633789 82.13037109 C31.96688132 82.12507665 29.93765237 82.13030347 27.90820312 82.13671875 C21.59062902 82.1397016 15.32183636 82.00078018 9.01953125 81.5 C1.94787023 80.93971958 -5.09069659 80.84780413 -12.17871094 80.86962891 C-14.26244249 80.87503226 -16.34596203 80.86961921 -18.4296875 80.86328125 C-25.67389447 80.86006389 -32.81069028 81.05675225 -40 82 C-36.39325674 77.56885828 -32.69711757 73.39228364 -28.41015625 69.58984375 C-9.66454996 52.28947695 -4.27904415 23.53474285 0 0 Z " fill="#020202" transform="translate(447,675)"/>
<path d="M0 0 C5.09382909 2.82212142 8.59821786 6.96444973 10.8125 12.375 C11.91285761 20.18330691 11.29361467 26.5845501 6.79296875 33.1484375 C1.32681881 39.29381317 -5.80468029 43.95085616 -14.0625 44.75 C-19.37913275 44.5801076 -23.15298859 42.34870992 -26.88671875 38.7265625 C-31.52977557 33.57760361 -33.81293104 29.00048514 -33.625 21.9765625 C-32.43953559 14.92728308 -28.89713998 8.2377442 -23.25 3.8125 C-15.72226938 -1.02981628 -8.51083059 -3.82347465 0 0 Z " fill="#FCFEFE" transform="translate(859.1875,615.625)"/>
<path d="M0 0 C5.22423696 3.16702448 8.35980351 7.07941053 10.3125 12.9375 C11.0787565 21.36632147 9.55706137 27.35357337 4.25 34.0625 C-1.21171494 39.98414883 -8.42835546 43.63549547 -16.51953125 44.13671875 C-21.66096013 43.66426312 -25.41927354 41.20572646 -29 37.625 C-33.1035388 31.0897345 -34.89819559 25.67442136 -33.6875 17.9375 C-31.05116461 9.98162563 -26.70622865 4.83118138 -19.51953125 0.6875 C-12.52613006 -2.77910851 -7.08959848 -3.53894007 0 0 Z " fill="#FCFEFE" transform="translate(806.6875,616.0625)"/>
<path d="M0 0 C2.61376953 -0.34057617 2.61376953 -0.34057617 5.8828125 -0.29296875 C7.04941406 -0.28330078 8.21601562 -0.27363281 9.41796875 -0.26367188 C10.64128906 -0.23853516 11.86460937 -0.21339844 13.125 -0.1875 C14.97158203 -0.16719727 14.97158203 -0.16719727 16.85546875 -0.14648438 C19.90407843 -0.11103543 22.951825 -0.06162079 26 0 C22.50034189 4.46960081 18.88580361 7.94815899 14.375 11.375 C13.75455811 11.85195313 13.13411621 12.32890625 12.49487305 12.8203125 C11.24291105 13.77922098 9.98831775 14.73470499 8.73095703 15.68652344 C7.24726727 16.81236983 5.77657117 17.95530437 4.30859375 19.1015625 C-22.31086095 39.34734494 -54.40151222 52.12272175 -88 51 C-78.30928044 43.39678792 -65.40450798 37.21167078 -53.04296875 37.1796875 C-36.99682448 36.23216165 -21.16280051 24.81180763 -10.48339844 13.37597656 C-6.71605845 9.11976436 -3.15502378 4.73253567 0 0 Z " fill="#060606" transform="translate(695,675)"/>
<path d="M0 0 C0.69480469 -0.01160156 1.38960937 -0.02320313 2.10546875 -0.03515625 C6.8440105 -0.00838483 10.129795 0.83476518 14.125 3.375 C16.125 6.375 16.125 6.375 16.0625 9.75 C14.97001759 13.97426533 13.41097022 15.59456366 10.125 18.375 C11.053125 18.766875 11.98125 19.15875 12.9375 19.5625 C16.44468762 21.55678315 17.58335083 22.69217143 19.125 26.375 C19.68815403 30.15617703 19.31238021 31.99243208 17.625 35.4375 C13.92101906 39.78967761 9.82268715 42.59566816 4.3125 44.1875 C-0.41865342 44.46580314 -5.13747567 44.45086783 -9.875 44.375 C-9.71612808 43.79441833 -9.55725616 43.21383667 -9.39356995 42.61566162 C-8.57659975 39.08565805 -8.51634558 35.49823669 -8.33984375 31.890625 C-8.29686661 31.07503113 -8.25388947 30.25943726 -8.20960999 29.41912842 C-8.0735622 26.82126129 -7.94296025 24.22315313 -7.8125 21.625 C-7.72106237 19.86065843 -7.62926962 18.09633522 -7.53710938 16.33203125 C-7.31228909 12.01322292 -7.09235158 7.69419038 -6.875 3.375 C-8.525 3.375 -10.175 3.375 -11.875 3.375 C-8.29258764 -0.13316547 -4.75358851 -0.07849963 0 0 Z " fill="#0BA59E" transform="translate(744.875,614.625)"/>
<path d="M0 0 C0.90105469 0.01804687 1.80210937 0.03609375 2.73046875 0.0546875 C3.41753906 0.07789063 4.10460937 0.10109375 4.8125 0.125 C2.8325 1.115 2.8325 1.115 0.8125 2.125 C1.04437012 2.79966309 1.27624023 3.47432617 1.51513672 4.16943359 C2.57913836 7.2774244 3.63336172 10.38865068 4.6875 13.5 C5.05230469 14.56089844 5.41710937 15.62179687 5.79296875 16.71484375 C7.95835711 23.13226745 9.69162408 29.44278311 10.8125 36.125 C11.4725 36.125 12.1325 36.125 12.8125 36.125 C13.18375 34.97 13.555 33.815 13.9375 32.625 C14.98233661 29.4704933 16.09463955 26.35097494 17.27734375 23.24609375 C17.53950684 22.55773437 17.80166992 21.869375 18.07177734 21.16015625 C18.59539165 19.79271123 19.12287786 18.42674062 19.65478516 17.0625 C21.41203545 12.47343007 22.69713849 7.91198217 23.8125 3.125 C22.8225 2.795 21.8325 2.465 20.8125 2.125 C24.12621 -0.08414 25.1571021 -0.09981553 29 0 C29.90105469 0.01804687 30.80210937 0.03609375 31.73046875 0.0546875 C32.41753906 0.07789063 33.10460937 0.10109375 33.8125 0.125 C33.1525 1.115 32.4925 2.105 31.8125 3.125 C32.42146338 5.7468096 33.12704047 8.11346381 34.0234375 10.63671875 C34.27042389 11.36494339 34.51741028 12.09316803 34.7718811 12.84346008 C35.56453398 15.1709942 36.37571679 17.49157726 37.1875 19.8125 C37.72779415 21.3882501 38.26687224 22.96441773 38.8046875 24.54101562 C40.12655698 28.40733199 41.46508147 32.26751699 42.8125 36.125 C46.051356 30.03337679 48.38298206 23.9336046 50.5 17.375 C50.80744141 16.44300781 51.11488281 15.51101563 51.43164062 14.55078125 C52.67367523 10.76216804 53.88692231 7.00498614 54.8125 3.125 C53.1625 3.125 51.5125 3.125 49.8125 3.125 C51.58694972 0.87893573 52.39602485 0.17418998 55.29296875 -0.16796875 C56.18628906 -0.13316406 57.07960938 -0.09835937 58 -0.0625 C58.90105469 -0.03542969 59.80210937 -0.00835938 60.73046875 0.01953125 C61.76107422 0.07173828 61.76107422 0.07173828 62.8125 0.125 C62.22984375 0.57359375 61.6471875 1.0221875 61.046875 1.484375 C57.78763008 5.3362099 56.64053861 9.63125218 55.0625 14.375 C52.56098981 21.55231882 49.92940481 28.55502314 46.5625 35.375 C46.08731934 36.3654834 46.08731934 36.3654834 45.60253906 37.37597656 C43.78240063 40.94940679 42.45649157 42.54385902 38.8125 44.125 C37.37045528 40.16830785 35.93471074 36.20935677 34.5 32.25 C34.09587891 31.14140625 33.69175781 30.0328125 33.27539062 28.890625 C30.91114238 22.35530465 28.71581202 15.80975708 26.8125 9.125 C26.40523682 10.13699463 26.40523682 10.13699463 25.98974609 11.16943359 C24.7309306 14.28317738 23.45930776 17.39154149 22.1875 20.5 C21.76082031 21.56089844 21.33414062 22.62179687 20.89453125 23.71484375 C18.12974561 30.44111329 15.27684407 37.32181437 10.8125 43.125 C9.3275 43.62 9.3275 43.62 7.8125 44.125 C7.45422119 42.98434082 7.09594238 41.84368164 6.72680664 40.66845703 C5.39972304 36.44494179 4.07043759 32.22212229 2.74047852 27.99951172 C2.16467972 26.17027449 1.58948186 24.34084799 1.01489258 22.51123047 C0.18988647 19.88459326 -0.63726354 17.25863964 -1.46484375 14.6328125 C-1.72216782 13.81193146 -1.97949188 12.99105042 -2.24461365 12.14529419 C-3.89600602 6.18528521 -3.89600602 6.18528521 -8.1875 2.125 C-4.87379 -0.08414 -3.8428979 -0.09981553 0 0 Z " fill="#0BA59E" transform="translate(481.1875,614.875)"/>
<path d="M0 0 C1.69118525 2.53677788 2.82686567 4.80335955 4.0625 7.5625 C9.44581336 18.37607423 19.50537011 26.60300953 28 35 C28.33 24.77 28.66 14.54 29 4 C28.01 3.67 27.02 3.34 26 3 C29.4352048 0.70986347 30.985331 0.82157027 35 1 C34.67 1.66 34.34 2.32 34 3 C33.80925313 5.69733242 33.67131418 8.37719306 33.5703125 11.078125 C33.49662701 12.73049262 33.42239065 14.38283574 33.34765625 16.03515625 C33.23441796 18.63963684 33.12522609 21.2440716 33.02587891 23.84912109 C32.9278979 26.36364834 32.81282894 28.87694489 32.6953125 31.390625 C32.67018585 32.16271301 32.6450592 32.93480103 32.61917114 33.73028564 C32.38156082 38.49622671 31.4832957 41.80262256 29 46 C28.34 46 27.68 46 27 46 C25.84180906 44.45574542 24.75035682 42.86135466 23.6875 41.25 C19.87495883 35.8284965 15.57864062 31.55926838 10.5690918 27.23730469 C6.99745481 24.11407839 4.47074986 21.05994577 2 17 C1.98018066 17.57443848 1.96036133 18.14887695 1.93994141 18.74072266 C1.84407976 21.36923833 1.73465126 23.99702491 1.625 26.625 C1.5940625 27.52863281 1.563125 28.43226563 1.53125 29.36328125 C1.31706465 34.25384672 0.87645845 38.40801632 -1 43 C0.65 43 2.3 43 4 43 C3.67 43.66 3.34 44.32 3 45 C0.35139573 45.59355614 -2.29197322 45.74209269 -5 46 C-4.83935059 45.349104 -4.67870117 44.69820801 -4.51318359 44.02758789 C-3.86455615 40.20093286 -3.82570662 36.42798537 -3.7890625 32.55859375 C-3.76101165 30.90689083 -3.73234733 29.25519823 -3.703125 27.60351562 C-3.66178458 25.01407978 -3.62487173 22.42484064 -3.59863281 19.83520508 C-3.57104015 17.32593741 -3.52519547 14.81753001 -3.4765625 12.30859375 C-3.47330963 11.53559433 -3.47005676 10.76259491 -3.46670532 9.96617126 C-3.36959928 5.72045323 -3.05303696 3.07483713 0 0 Z " fill="#15A8A2" transform="translate(193,613)"/>
<path d="M0 0 C5.09382909 2.82212142 8.59821786 6.96444973 10.8125 12.375 C11.91285761 20.18330691 11.29361467 26.5845501 6.79296875 33.1484375 C1.32681881 39.29381317 -5.80468029 43.95085616 -14.0625 44.75 C-19.37913275 44.5801076 -23.15298859 42.34870992 -26.88671875 38.7265625 C-31.52977557 33.57760361 -33.81293104 29.00048514 -33.625 21.9765625 C-32.43953559 14.92728308 -28.89713998 8.2377442 -23.25 3.8125 C-15.72226938 -1.02981628 -8.51083059 -3.82347465 0 0 Z M-25.5625 9.3125 C-28.74694782 15.46821085 -28.1135882 23.37883231 -26.125 29.8125 C-23.17328811 33.71637701 -19.59634351 37.17057825 -15.1875 39.375 C-10.6355638 39.97135648 -6.12973696 40.39759119 -1.9765625 38.2109375 C2.57920305 34.46252281 4.54982625 30.98646573 5.1484375 25.03515625 C5.4487753 15.89997268 5.4487753 15.89997268 0.8125 8.375 C-4.17741796 3.63262366 -8.07876065 1.99072663 -14.90625 2.1015625 C-19.94214311 2.70517983 -22.50075593 5.52560601 -25.5625 9.3125 Z " fill="#12A7A1" transform="translate(859.1875,615.625)"/>
<path d="M0 0 C5.22423696 3.16702448 8.35980351 7.07941053 10.3125 12.9375 C11.0787565 21.36632147 9.55706137 27.35357337 4.25 34.0625 C-1.21171494 39.98414883 -8.42835546 43.63549547 -16.51953125 44.13671875 C-21.66096013 43.66426312 -25.41927354 41.20572646 -29 37.625 C-33.1035388 31.0897345 -34.89819559 25.67442136 -33.6875 17.9375 C-31.05116461 9.98162563 -26.70622865 4.83118138 -19.51953125 0.6875 C-12.52613006 -2.77910851 -7.08959848 -3.53894007 0 0 Z M-25 7.5 C-29.04097596 13.33696528 -28.18402292 20.09411889 -27.6875 26.9375 C-26.52695833 31.42443497 -23.77892123 34.15144064 -20.125 36.875 C-15.1657677 39.66514752 -10.2311117 39.98858234 -4.6875 38.9375 C-1.11168004 37.22921354 0.86556796 34.54830712 3.1875 31.375 C5.19614856 25.23746273 5.44921923 18.13895219 3.1875 12 C0.12134493 6.99194672 -3.89682687 3.49109523 -9.6875 1.9375 C-16.24685396 1.34119509 -20.53536909 2.55270629 -25 7.5 Z " fill="#13A8A1" transform="translate(806.6875,616.0625)"/>
<path d="M0 0 C0.34256836 1.20124512 0.68513672 2.40249023 1.03808594 3.64013672 C2.31197652 8.09141763 3.60643468 12.53649362 4.90722656 16.97998047 C5.46755748 18.90477886 6.0222804 20.83121897 6.57128906 22.75927734 C7.36098527 25.52891586 8.1705989 28.29204245 8.984375 31.0546875 C9.22621521 31.9193161 9.46805542 32.7839447 9.71722412 33.67477417 C9.95717102 34.47545319 10.19711792 35.2761322 10.44433594 36.10107422 C10.6486322 36.8072287 10.85292847 37.51338318 11.06341553 38.24093628 C12.28512353 40.53551012 13.63015916 41.05803103 16 42 C12.36576791 44.32590854 9.22911669 44.16265833 5 44 C4.87882813 43.34773437 4.75765625 42.69546875 4.6328125 42.0234375 C4.46523438 41.14945313 4.29765625 40.27546875 4.125 39.375 C3.96257813 38.51648438 3.80015625 37.65796875 3.6328125 36.7734375 C2.9535954 33.79662182 1.96554479 30.89663438 1 28 C-3.62 28 -8.24 28 -13 28 C-13.66 29.98 -14.32 31.96 -15 34 C-15.97004121 36.01470098 -16.96244882 38.01922047 -18 40 C-16.35 40.33 -14.7 40.66 -13 41 C-15.49505962 43.49505962 -16.67328888 43.35948376 -20.125 43.625 C-21.03507813 43.69976563 -21.94515625 43.77453125 -22.8828125 43.8515625 C-23.58148437 43.90054688 -24.28015625 43.94953125 -25 44 C-23.86014648 42.49977295 -23.86014648 42.49977295 -22.69726562 40.96923828 C-20.09186285 37.31546232 -18.41166467 33.67652238 -16.84375 29.4921875 C-16.29050255 28.07937305 -15.73711292 26.66661427 -15.18359375 25.25390625 C-14.33720415 23.05899819 -13.4952272 20.86248902 -12.65673828 18.66455078 C-11.8342857 16.51929243 -10.99601548 14.38071624 -10.15625 12.2421875 C-9.91338257 11.58999237 -9.67051514 10.93779724 -9.42028809 10.26583862 C-7.77787313 6.10381906 -5.11249851 0 0 0 Z " fill="#11A7A0" transform="translate(666,615)"/>
<path d="M0 0 C7.41602921 -0.17437413 7.41602921 -0.17437413 11 3 C12.39257512 7.34155774 12.39417101 9.22625691 10.3125 13.3125 C8.21906109 15.74541549 6.97254671 16.93837618 4 18 C5.258125 18.2475 6.51625 18.495 7.8125 18.75 C10.50163627 19.44013232 11.84935802 19.87289583 14 21.6875 C15.4315846 24.99803939 15.3700744 27.42261415 15 31 C12.69767442 36.65116279 12.69767442 36.65116279 10 38 C7.7927077 38.07092842 5.58332548 38.08415025 3.375 38.0625 C2.18648437 38.05347656 0.99796875 38.04445313 -0.2265625 38.03515625 C-1.14179687 38.02355469 -2.05703125 38.01195312 -3 38 C-2.67854004 37.33395752 -2.35708008 36.66791504 -2.02587891 35.98168945 C-0.79013652 32.39003743 -0.64825122 29.04773683 -0.5859375 25.29296875 C-0.56657135 24.56757401 -0.5472052 23.84217926 -0.5272522 23.09480286 C-0.46777892 20.79248578 -0.42120155 18.49011781 -0.375 16.1875 C-0.33679042 14.62042168 -0.29773697 13.05336369 -0.2578125 11.48632812 C-0.16210437 7.65771848 -0.07795552 3.82901058 0 0 Z " fill="#F8FCFC" transform="translate(743,618)"/>
<path d="M0 0 C0.99773437 0.02320313 1.99546875 0.04640625 3.0234375 0.0703125 C4.52777344 0.09738281 4.52777344 0.09738281 6.0625 0.125 C6.83335937 0.14820313 7.60421875 0.17140625 8.3984375 0.1953125 C7.7384375 0.8553125 7.0784375 1.5153125 6.3984375 2.1953125 C6.81684248 8.59913796 9.6238595 14.94892387 11.8984375 20.8828125 C12.51382975 22.51141332 13.12843186 24.14031295 13.7421875 25.76953125 C14.02835937 26.52669434 14.31453125 27.28385742 14.609375 28.06396484 C15.60504165 30.75337382 16.51678394 33.46659473 17.3984375 36.1953125 C18.67445081 33.69784227 19.94429921 31.19753314 21.2109375 28.6953125 C21.56736328 27.99921875 21.92378906 27.303125 22.29101562 26.5859375 C25.4027594 20.41954617 28.54033686 14.17900071 29.0859375 7.1953125 C29.15167969 6.4321875 29.21742188 5.6690625 29.28515625 4.8828125 C29.32253906 4.3259375 29.35992187 3.7690625 29.3984375 3.1953125 C28.0784375 2.8653125 26.7584375 2.5353125 25.3984375 2.1953125 C28.7121475 -0.0138275 29.7430396 -0.02950303 33.5859375 0.0703125 C34.48699219 0.08835937 35.38804687 0.10640625 36.31640625 0.125 C37.00347656 0.14820313 37.69054687 0.17140625 38.3984375 0.1953125 C37.8003125 0.8140625 37.2021875 1.4328125 36.5859375 2.0703125 C34.61614725 4.88429857 33.97934293 6.2628904 33.1484375 9.4453125 C29.96450346 21.0043774 23.62663296 37.37651552 13.3984375 44.1953125 C9.72322638 35.57068516 6.3331744 26.8643111 3.0859375 18.0703125 C2.4043457 16.245 2.4043457 16.245 1.70898438 14.3828125 C1.28037109 13.22523438 0.85175781 12.06765625 0.41015625 10.875 C0.02303467 9.83069824 -0.36408691 8.78639648 -0.76293945 7.71044922 C-1.6015625 5.1953125 -1.6015625 5.1953125 -1.6015625 3.1953125 C-2.5915625 2.8653125 -3.5815625 2.5353125 -4.6015625 2.1953125 C-2.6015625 0.1953125 -2.6015625 0.1953125 0 0 Z " fill="#0BA59E" transform="translate(368.6015625,614.8046875)"/>
<path d="M0 0 C4.97994313 -0.18537859 8.35063651 0.31709101 12.62109375 3.1640625 C15.29760585 5.66214046 15.59369553 6.91291218 15.99609375 10.6015625 C15.49021023 15.40745598 14.14067061 17.90498453 10.43359375 20.9765625 C9.83546875 21.3684375 9.23734375 21.7603125 8.62109375 22.1640625 C7.96109375 21.8340625 7.30109375 21.5040625 6.62109375 21.1640625 C7.13671875 20.3184375 7.65234375 19.4728125 8.18359375 18.6015625 C9.90755557 14.4790451 9.90654299 12.42211311 8.62109375 8.1640625 C4.78417546 4.67595496 0.5681653 4.72105111 -4.37890625 4.1640625 C-4.37366943 4.79795898 -4.36843262 5.43185547 -4.36303711 6.08496094 C-4.14345415 36.69315829 -4.14345415 36.69315829 -6.37890625 41.1640625 C-4.06890625 41.1640625 -1.75890625 41.1640625 0.62109375 41.1640625 C-0.37890625 43.1640625 -0.37890625 43.1640625 -3.00390625 44.2890625 C-6.59701413 45.22060899 -9.68306249 45.31189625 -13.37890625 45.1640625 C-13.05744629 44.0090625 -12.73598633 42.8540625 -12.40478516 41.6640625 C-11.36730763 37.50089099 -11.03750449 33.44490124 -10.96484375 29.1640625 C-10.9454776 28.4429126 -10.92611145 27.7217627 -10.90615845 26.97875977 C-10.84705362 24.70730897 -10.8002585 22.43580555 -10.75390625 20.1640625 C-10.71566259 18.61065671 -10.67660729 17.05727067 -10.63671875 15.50390625 C-10.54141059 11.72412151 -10.45712993 7.94423782 -10.37890625 4.1640625 C-11.69890625 3.8340625 -13.01890625 3.5040625 -14.37890625 3.1640625 C-9.85572556 0.1486087 -5.31948141 0.36686079 0 0 Z " fill="#14A8A1" transform="translate(333.37890625,613.8359375)"/>
<path d="M0 0 C0.78568359 -0.00708984 1.57136719 -0.01417969 2.38085938 -0.02148438 C7.31155299 0.03215497 10.81952289 0.68442325 15.0625 3.4375 C17.91571884 7.71732827 18.04212872 11.42061353 17.0625 16.4375 C14.27919417 21.09719179 10.14449733 25.37723081 5.0625 27.4375 C2.75 27.125 2.75 27.125 1.0625 26.4375 C2.155625 26.086875 3.24875 25.73625 4.375 25.375 C7.61992863 23.97587085 8.06073893 23.44045406 10 20.1875 C11.10638822 16.2826004 11.59420791 13.46328847 11.0625 9.4375 C8.70794469 6.45506328 6.70628939 4.67783744 2.8984375 4.12109375 C2.08632813 4.03988281 1.27421875 3.95867188 0.4375 3.875 C-0.37976563 3.79121094 -1.19703125 3.70742188 -2.0390625 3.62109375 C-2.66554688 3.56050781 -3.29203125 3.49992188 -3.9375 3.4375 C-3.92702637 4.3346875 -3.91655273 5.231875 -3.90576172 6.15625 C-3.87146274 9.51841862 -3.84649625 12.88039844 -3.82763672 16.24267578 C-3.81764414 17.69159906 -3.80404547 19.14050251 -3.78662109 20.58935547 C-3.61299249 35.40906783 -3.61299249 35.40906783 -5.9375 42.4375 C-4.2875 42.4375 -2.6375 42.4375 -0.9375 42.4375 C-3.80049506 45.30049506 -5.59602284 45.43171225 -9.625 45.5 C-10.718125 45.479375 -11.81125 45.45875 -12.9375 45.4375 C-12.628125 44.6125 -12.31875 43.7875 -12 42.9375 C-9.49253047 34.67760037 -9.65083108 26.00182886 -9.375 17.4375 C-9.31022461 15.55998047 -9.31022461 15.55998047 -9.24414062 13.64453125 C-9.13871983 10.57561477 -9.03659658 7.50662611 -8.9375 4.4375 C-10.5875 4.4375 -12.2375 4.4375 -13.9375 4.4375 C-9.49206169 -0.07949467 -5.98570262 -0.15147492 0 0 Z " fill="#0BA59E" transform="translate(584.9375,613.5625)"/>
<path d="M0 0 C1.06992187 0.00644531 2.13984375 0.01289062 3.2421875 0.01953125 C4.35335938 0.03628906 5.46453125 0.05304687 6.609375 0.0703125 C7.73601562 0.07933594 8.86265625 0.08835937 10.0234375 0.09765625 C12.80229865 0.12120592 15.5807289 0.1540957 18.359375 0.1953125 C16.57519531 2.18457031 16.57519531 2.18457031 14.359375 4.1953125 C9.59506687 4.43245001 5.12108079 3.72439092 0.359375 3.1953125 C0.359375 8.4753125 0.359375 13.7553125 0.359375 19.1953125 C5.309375 19.1953125 10.259375 19.1953125 15.359375 19.1953125 C12.359375 22.1953125 12.359375 22.1953125 9.44140625 22.48828125 C8.36246094 22.45347656 7.28351563 22.41867187 6.171875 22.3828125 C5.08519531 22.35574219 3.99851562 22.32867188 2.87890625 22.30078125 C1.63173828 22.24857422 1.63173828 22.24857422 0.359375 22.1953125 C0.37097656 23.41089844 0.38257813 24.62648438 0.39453125 25.87890625 C0.40390778 27.46354014 0.41300813 29.04817568 0.421875 30.6328125 C0.43025391 31.43525391 0.43863281 32.23769531 0.44726562 33.06445312 C0.4558893 35.10826471 0.4116565 37.15215152 0.359375 39.1953125 C-0.135625 39.6903125 -0.135625 39.6903125 -0.640625 40.1953125 C4.639375 40.5253125 9.919375 40.8553125 15.359375 41.1953125 C15.029375 41.8553125 14.699375 42.5153125 14.359375 43.1953125 C11.59372118 44.11719711 9.97653798 44.31316472 7.12890625 44.29296875 C6.40550049 44.29047119 5.68209473 44.28797363 4.93676758 44.28540039 C3.56814575 44.27174438 3.56814575 44.27174438 2.171875 44.2578125 C-0.73625 44.2371875 -3.644375 44.2165625 -6.640625 44.1953125 C-6.310625 36.9353125 -5.980625 29.6753125 -5.640625 22.1953125 C-6.300625 21.8653125 -6.960625 21.5353125 -7.640625 21.1953125 C-6.980625 21.1953125 -6.320625 21.1953125 -5.640625 21.1953125 C-5.640625 15.2553125 -5.640625 9.3153125 -5.640625 3.1953125 C-6.960625 2.8653125 -8.280625 2.5353125 -9.640625 2.1953125 C-6.3223173 0.20570477 -3.84102801 -0.040862 0 0 Z " fill="#11A7A0" transform="translate(447.640625,614.8046875)"/>
<path d="M0 0 C1.06992187 0.00644531 2.13984375 0.01289062 3.2421875 0.01953125 C4.35335938 0.03628906 5.46453125 0.05304687 6.609375 0.0703125 C7.73601562 0.07933594 8.86265625 0.08835937 10.0234375 0.09765625 C12.80229865 0.12120592 15.5807289 0.1540957 18.359375 0.1953125 C16.57519531 2.18457031 16.57519531 2.18457031 14.359375 4.1953125 C9.59506687 4.43245001 5.12108079 3.72439092 0.359375 3.1953125 C0.359375 8.4753125 0.359375 13.7553125 0.359375 19.1953125 C5.309375 19.1953125 10.259375 19.1953125 15.359375 19.1953125 C12.359375 22.1953125 12.359375 22.1953125 9.44140625 22.48828125 C8.36246094 22.45347656 7.28351563 22.41867187 6.171875 22.3828125 C5.08519531 22.35574219 3.99851562 22.32867188 2.87890625 22.30078125 C1.63173828 22.24857422 1.63173828 22.24857422 0.359375 22.1953125 C0.37097656 23.41089844 0.38257813 24.62648438 0.39453125 25.87890625 C0.40390778 27.46354014 0.41300813 29.04817568 0.421875 30.6328125 C0.43025391 31.43525391 0.43863281 32.23769531 0.44726562 33.06445312 C0.4558893 35.10826471 0.4116565 37.15215152 0.359375 39.1953125 C-0.135625 39.6903125 -0.135625 39.6903125 -0.640625 40.1953125 C4.639375 40.5253125 9.919375 40.8553125 15.359375 41.1953125 C15.029375 41.8553125 14.699375 42.5153125 14.359375 43.1953125 C11.59372118 44.11719711 9.97653798 44.31316472 7.12890625 44.29296875 C6.40550049 44.29047119 5.68209473 44.28797363 4.93676758 44.28540039 C3.56814575 44.27174438 3.56814575 44.27174438 2.171875 44.2578125 C-0.73625 44.2371875 -3.644375 44.2165625 -6.640625 44.1953125 C-6.310625 36.9353125 -5.980625 29.6753125 -5.640625 22.1953125 C-6.300625 21.8653125 -6.960625 21.5353125 -7.640625 21.1953125 C-6.980625 21.1953125 -6.320625 21.1953125 -5.640625 21.1953125 C-5.640625 15.2553125 -5.640625 9.3153125 -5.640625 3.1953125 C-6.960625 2.8653125 -8.280625 2.5353125 -9.640625 2.1953125 C-6.3223173 0.20570477 -3.84102801 -0.040862 0 0 Z " fill="#11A7A0" transform="translate(291.640625,614.8046875)"/>
<path d="M0 0 C1.8871875 0.061875 1.8871875 0.061875 3.8125 0.125 C3.88339844 0.96289062 3.95429687 1.80078125 4.02734375 2.6640625 C5.00620799 6.97885712 6.91264236 9.88590137 9.375 13.5 C11.5715625 16.779375 11.5715625 16.779375 13.8125 20.125 C16.4525 14.845 19.0925 9.565 21.8125 4.125 C20.4925 3.465 19.1725 2.805 17.8125 2.125 C21.12621 -0.08414 22.1571021 -0.09981553 26 0 C26.90105469 0.01804687 27.80210937 0.03609375 28.73046875 0.0546875 C29.41753906 0.07789063 30.10460937 0.10109375 30.8125 0.125 C30.07257812 0.80433594 29.33265625 1.48367188 28.5703125 2.18359375 C25.58129508 5.17366439 23.67476112 8.48396791 21.6875 12.1875 C18.03095861 18.88645324 18.03095861 18.88645324 16.11328125 20.98046875 C13.97158999 24.51136516 14.23582092 28.32212061 14.125 32.375 C14.09083984 33.21546875 14.05667969 34.0559375 14.02148438 34.921875 C13.93926432 36.98912204 13.87419843 39.05703874 13.8125 41.125 C15.7925 41.125 17.7725 41.125 19.8125 41.125 C19.4825 41.785 19.1525 42.445 18.8125 43.125 C16.06171116 44.04192961 14.45301087 44.23386083 11.625 44.1875 C10.366875 44.166875 9.10875 44.14625 7.8125 44.125 C7.91691406 42.9390625 8.02132812 41.753125 8.12890625 40.53125 C8.85718061 28.41850035 6.74861629 20.70963539 -0.10791016 10.72363281 C-1.07252224 9.29525653 -1.94029136 7.80257819 -2.79296875 6.3046875 C-4.15251599 3.85803362 -4.15251599 3.85803362 -7.1875 2.125 C-4.09861478 0.06574319 -3.47814073 -0.1140374 0 0 Z " fill="#09A49D" transform="translate(695.1875,614.875)"/>
<path d="M0 0 C1.54482258 0.0007879 3.0897926 0.02882484 4.63378906 0.0793457 C5.85717987 0.08995781 5.85717987 0.08995781 7.10528564 0.1007843 C9.70427087 0.12872151 12.30108278 0.19145414 14.89941406 0.25512695 C16.66370581 0.2802109 18.42803141 0.30302391 20.19238281 0.32348633 C24.51222762 0.37854541 28.83045269 0.4648096 33.14941406 0.56762695 C33.14941406 1.22762695 33.14941406 1.88762695 33.14941406 2.56762695 C28.77496521 5.69223328 25.7588901 5.66122077 20.41113281 5.1574707 C19.23897217 5.05168701 18.06681152 4.94590332 16.85913086 4.83691406 C15.96492432 4.74804932 15.07071777 4.65918457 14.14941406 4.56762695 C14.1598877 5.57664062 14.17036133 6.5856543 14.18115234 7.62524414 C14.21739904 11.37488242 14.2403315 15.12450525 14.25927734 18.87426758 C14.26932429 20.49603888 14.28296421 22.11779211 14.30029297 23.73950195 C14.324599 26.07288069 14.33591019 28.40601955 14.34472656 30.73950195 C14.35504913 31.46256531 14.3653717 32.18562866 14.37600708 32.93060303 C14.37683188 36.64560734 14.21176877 39.4134374 12.14941406 42.56762695 C13.79941406 42.56762695 15.44941406 42.56762695 17.14941406 42.56762695 C15.44112485 44.67396414 14.6279299 45.50564304 11.88769531 45.8605957 C11.0871875 45.82579102 10.28667969 45.79098633 9.46191406 45.75512695 C8.24955078 45.71452148 8.24955078 45.71452148 7.01269531 45.6730957 C6.3978125 45.63829102 5.78292969 45.60348633 5.14941406 45.56762695 C5.63385986 44.74311035 6.11830566 43.91859375 6.61743164 43.0690918 C8.34356869 39.12387147 8.62323901 35.77091619 8.66113281 31.54418945 C8.67908401 30.79801361 8.69703522 30.05183777 8.7155304 29.28305054 C8.76934511 26.91963205 8.80343473 24.55641209 8.83691406 22.19262695 C8.87011278 20.58192241 8.90460479 18.97124397 8.94042969 17.3605957 C9.02747067 13.42958216 9.08778011 9.49944785 9.14941406 5.56762695 C3.53941406 5.56762695 -2.07058594 5.56762695 -7.85058594 5.56762695 C-3.85058594 0.56762695 -3.85058594 0.56762695 0 0 Z " fill="#0DA69F" transform="translate(242.8505859375,613.432373046875)"/>
<path d="M0 0 C1.21236328 0.02707031 1.21236328 0.02707031 2.44921875 0.0546875 C3.37154297 0.08949219 3.37154297 0.08949219 4.3125 0.125 C3.6525 0.785 2.9925 1.445 2.3125 2.125 C2.00875447 4.80573744 1.82096497 7.39993983 1.71484375 10.08984375 C1.67565323 10.87895645 1.63646271 11.66806915 1.59608459 12.48109436 C1.47181973 15.00789647 1.36018146 17.5350477 1.25 20.0625 C1.13446543 22.58624574 1.01622193 25.10980175 0.89320374 27.63319397 C0.8171659 29.20445231 0.74575316 30.7759427 0.6794281 32.34764099 C0.53189852 35.49129565 0.31340011 38.12229966 -0.6875 41.125 C5.5825 41.125 11.8525 41.125 18.3125 41.125 C12.6875 45.625 12.6875 45.625 8.23046875 45.515625 C7.29912109 45.50273438 6.36777344 45.48984375 5.40820312 45.4765625 C4.44849609 45.44304688 3.48878906 45.40953125 2.5 45.375 C1.03143555 45.34792969 1.03143555 45.34792969 -0.46679688 45.3203125 C-2.87470771 45.27332887 -5.28059335 45.20765694 -7.6875 45.125 C-7.36604004 44.30950684 -7.04458008 43.49401367 -6.71337891 42.65380859 C-5.53920808 38.61490684 -5.33710045 34.83334717 -5.2734375 30.6640625 C-5.25407135 29.87349457 -5.2347052 29.08292664 -5.2147522 28.2684021 C-5.15533947 25.76237517 -5.10872573 23.25630135 -5.0625 20.75 C-5.02428487 19.04294957 -4.98523111 17.33591769 -4.9453125 15.62890625 C-4.84966989 11.46108956 -4.76549885 7.2931827 -4.6875 3.125 C-5.6775 2.795 -6.6675 2.465 -7.6875 2.125 C-4.48369983 -0.01086678 -3.66810033 -0.10632175 0 0 Z " fill="#12A7A1" transform="translate(619.6875,613.875)"/>
<path d="M0 0 C-0.33 0.66 -0.66 1.32 -1 2 C-1.66 2 -2.32 2 -3 2 C-2.98952637 3.03930664 -2.97905273 4.07861328 -2.96826172 5.14941406 C-2.93202064 9.01086981 -2.90908459 12.87231057 -2.89013672 16.73388672 C-2.8800885 18.40415985 -2.86644764 20.07441542 -2.84912109 21.74462891 C-2.82482074 24.14750504 -2.81350513 26.55014827 -2.8046875 28.953125 C-2.79436493 29.69806213 -2.78404236 30.44299927 -2.77340698 31.21051025 C-2.77259632 34.96927642 -2.89632882 37.81173711 -5 41 C-2.69 41 -0.38 41 2 41 C0.625 43 0.625 43 -2 45 C-5.3580469 45.35791096 -8.63536357 45.23115823 -12 45 C-11.67854004 44.51499023 -11.35708008 44.02998047 -11.02587891 43.53027344 C-9.56100454 39.91724204 -9.64222816 36.35899649 -9.5859375 32.515625 C-9.56657135 31.70003113 -9.5472052 30.88443726 -9.5272522 30.04412842 C-9.46760425 27.44619108 -9.42113058 24.84820907 -9.375 22.25 C-9.33680658 20.48565806 -9.29775405 18.72133449 -9.2578125 16.95703125 C-9.16191495 12.63817054 -9.07782953 8.31922256 -9 4 C-10.32 3.67 -11.64 3.34 -13 3 C-9.21656826 -0.94792877 -5.07874402 -0.29300446 0 0 Z " fill="#1CABA5" transform="translate(893,614)"/>
<path d="M0 0 C1.21236328 0.02707031 1.21236328 0.02707031 2.44921875 0.0546875 C3.37154297 0.08949219 3.37154297 0.08949219 4.3125 0.125 C3.9825 0.785 3.6525 1.445 3.3125 2.125 C2.3225 2.455 1.3325 2.785 0.3125 3.125 C-1.34070117 4.97885214 -1.34070117 4.97885214 -2.9375 7.25 C-6.19859657 11.59581099 -9.74384485 15.39710714 -13.6875 19.125 C-12.23794856 23.71948468 -9.61367597 26.80057353 -6.375 30.25 C-5.90126953 30.77464844 -5.42753906 31.29929687 -4.93945312 31.83984375 C-0.95584205 36.14497747 2.6517957 39.30629625 8.625 39.8125 C9.841875 39.915625 11.05875 40.01875 12.3125 40.125 C9.88459554 42.98135819 8.23152066 44.874358 4.5625 45.875 C-4.42278995 43.80147155 -12.91426177 34.12941122 -18.25 26.875 C-19.6875 24.125 -19.6875 24.125 -19.44091797 22.13061523 C-18.17499332 18.76069592 -15.38734061 16.60254371 -12.8125 14.1875 C-9.15036207 10.72978069 -6.0665071 7.6417862 -3.6875 3.125 C-5.0075 2.795 -6.3275 2.465 -7.6875 2.125 C-4.48369983 -0.01086678 -3.66810033 -0.10632175 0 0 Z " fill="#0DA59F" transform="translate(910.6875,613.875)"/>
<path d="M0 0 C1.21236328 0.02707031 1.21236328 0.02707031 2.44921875 0.0546875 C3.37154297 0.08949219 3.37154297 0.08949219 4.3125 0.125 C3.6525 0.785 2.9925 1.445 2.3125 2.125 C2.00875447 4.80573744 1.82096497 7.39993983 1.71484375 10.08984375 C1.67565323 10.87895645 1.63646271 11.66806915 1.59608459 12.48109436 C1.47181973 15.00789647 1.36018146 17.5350477 1.25 20.0625 C1.13446543 22.58624574 1.01622193 25.10980175 0.89320374 27.63319397 C0.8171659 29.20445231 0.74575316 30.7759427 0.6794281 32.34764099 C0.53189852 35.49129565 0.31340011 38.12229966 -0.6875 41.125 C0.9625 41.455 2.6125 41.785 4.3125 42.125 C2.60421079 44.23133718 1.79101584 45.06301608 -0.94921875 45.41796875 C-1.74972656 45.38316406 -2.55023438 45.34835937 -3.375 45.3125 C-4.58736328 45.27189453 -4.58736328 45.27189453 -5.82421875 45.23046875 C-6.43910156 45.19566406 -7.05398438 45.16085937 -7.6875 45.125 C-7.36604004 44.30950684 -7.04458008 43.49401367 -6.71337891 42.65380859 C-5.53920808 38.61490684 -5.33710045 34.83334717 -5.2734375 30.6640625 C-5.25407135 29.87349457 -5.2347052 29.08292664 -5.2147522 28.2684021 C-5.15533947 25.76237517 -5.10872573 23.25630135 -5.0625 20.75 C-5.02428487 19.04294957 -4.98523111 17.33591769 -4.9453125 15.62890625 C-4.84966989 11.46108956 -4.76549885 7.2931827 -4.6875 3.125 C-5.6775 2.795 -6.6675 2.465 -7.6875 2.125 C-4.48369983 -0.01086678 -3.66810033 -0.10632175 0 0 Z " fill="#0CA59E" transform="translate(422.6875,613.875)"/>
<path d="M0 0 C1.21236328 0.02707031 1.21236328 0.02707031 2.44921875 0.0546875 C3.37154297 0.08949219 3.37154297 0.08949219 4.3125 0.125 C3.6525 0.785 2.9925 1.445 2.3125 2.125 C2.00875447 4.80573744 1.82096497 7.39993983 1.71484375 10.08984375 C1.67565323 10.87895645 1.63646271 11.66806915 1.59608459 12.48109436 C1.47181973 15.00789647 1.36018146 17.5350477 1.25 20.0625 C1.13446543 22.58624574 1.01622193 25.10980175 0.89320374 27.63319397 C0.8171659 29.20445231 0.74575316 30.7759427 0.6794281 32.34764099 C0.53189852 35.49129565 0.31340011 38.12229966 -0.6875 41.125 C0.9625 41.455 2.6125 41.785 4.3125 42.125 C2.60421079 44.23133718 1.79101584 45.06301608 -0.94921875 45.41796875 C-1.74972656 45.38316406 -2.55023438 45.34835937 -3.375 45.3125 C-4.58736328 45.27189453 -4.58736328 45.27189453 -5.82421875 45.23046875 C-6.43910156 45.19566406 -7.05398437 45.16085937 -7.6875 45.125 C-7.36604004 44.30950684 -7.04458008 43.49401367 -6.71337891 42.65380859 C-5.53920808 38.61490684 -5.33710045 34.83334717 -5.2734375 30.6640625 C-5.25407135 29.87349457 -5.2347052 29.08292664 -5.2147522 28.2684021 C-5.15533947 25.76237517 -5.10872573 23.25630135 -5.0625 20.75 C-5.02428487 19.04294957 -4.98523111 17.33591769 -4.9453125 15.62890625 C-4.84966989 11.46108956 -4.76549885 7.2931827 -4.6875 3.125 C-5.6775 2.795 -6.6675 2.465 -7.6875 2.125 C-4.48369983 -0.01086678 -3.66810033 -0.10632175 0 0 Z " fill="#0CA59E" transform="translate(171.6875,613.875)"/>
<path d="M0 0 C1.5703125 1.3984375 1.5703125 1.3984375 3.125 3.375 C6.01193781 6.85301344 8.98195933 10.18688502 12.125 13.4375 C13.33542969 14.70400391 13.33542969 14.70400391 14.5703125 15.99609375 C17.15281342 18.12603422 18.71062635 18.67808621 22 19 C17.7691333 22.86822098 17.7691333 22.86822098 14.62890625 23.40625 C10.94799437 22.83743152 9.65783477 21.18658512 7.125 18.5 C6.26003906 17.5925 5.39507812 16.685 4.50390625 15.75 C1.76820468 12.74542292 -0.92466213 9.71441003 -3.52734375 6.59375 C-5.10689997 4.759259 -5.10689997 4.759259 -8 3 C-4.93882432 0.37613513 -4.26826873 0 0 0 Z " fill="#0FA6A0" transform="translate(340,636)"/>
<path d="M0 0 C0.8353125 0.8971875 0.8353125 0.8971875 1.6875 1.8125 C3.90542791 4.083055 3.90542791 4.083055 6.625 5.5 C9.29376913 7.1855384 10.06257146 8.01727282 11 11 C11.48852338 14.74534588 11.17064666 16.65159639 9.5 20.0625 C6.40523522 23.69884862 3.5337585 26.355552 -1 28 C-4.44062362 28.10782581 -7.63496772 27.69645135 -11 27 C-11 26.67 -11 26.34 -11 26 C-4.565 25.505 -4.565 25.505 2 25 C3.70162826 19.89511522 4.57506572 17.1755915 4 12 C2.62716577 9.45997987 2.62716577 9.45997987 0 8 C-2.70401084 7.39108153 -5.21661895 7.18555874 -8 7 C-7.13375 6.38125 -7.13375 6.38125 -6.25 5.75 C-3.97483401 3.98042645 -2.00004601 2.07147622 0 0 Z " fill="#1AAAA4" transform="translate(753,630)"/>
<path d="M0 0 C2.87557703 -0.08138426 5.74882262 -0.14067851 8.625 -0.1875 C9.43324219 -0.21263672 10.24148438 -0.23777344 11.07421875 -0.26367188 C16.14230591 -0.32547782 19.63703837 0.12044532 24 3 C26.85321884 7.27982827 26.97962872 10.98311353 26 16 C23.21669417 20.65969179 19.08199733 24.93973081 14 27 C11.6875 26.6875 11.6875 26.6875 10 26 C11.093125 25.649375 12.18625 25.29875 13.3125 24.9375 C16.55742863 23.53837085 16.99823893 23.00295406 18.9375 19.75 C20.04388822 15.8451004 20.53170791 13.02578847 20 9 C18.27538131 6.22561341 16.84599439 5.25481759 13.73046875 4.31640625 C11.49329239 3.80555495 9.26470427 3.36777249 7 3 C7 2.67 7 2.34 7 2 C4.69 1.67 2.38 1.34 0 1 C0 0.67 0 0.34 0 0 Z " fill="#1AAAA4" transform="translate(576,614)"/>
<path d="M0 0 C0.90105469 0.01804687 1.80210937 0.03609375 2.73046875 0.0546875 C3.41753906 0.07789063 4.10460937 0.10109375 4.8125 0.125 C4.214375 0.74375 3.61625 1.3625 3 2 C1.03020975 4.81398607 0.39340543 6.1925779 -0.4375 9.375 C-1.83590069 14.51800698 -3.92218103 19.19360186 -6.1875 24 C-6.53200195 24.73766602 -6.87650391 25.47533203 -7.23144531 26.23535156 C-10.63099374 33.35060969 -10.63099374 33.35060969 -13.1875 36.125 C-13.8475 36.125 -14.5075 36.125 -15.1875 36.125 C-13.11600612 30.86659247 -10.86190476 25.68961903 -8.625 20.5 C-8.150625 19.38625 -7.67625 18.2725 -7.1875 17.125 C-6.80851562 16.25488281 -6.42953125 15.38476562 -6.0390625 14.48828125 C-5.1579004 12.04285431 -4.79384082 9.89580584 -4.5625 7.3125 C-4.48773438 6.52230469 -4.41296875 5.73210938 -4.3359375 4.91796875 C-4.28695313 4.32628906 -4.23796875 3.73460937 -4.1875 3.125 C-5.5075 2.795 -6.8275 2.465 -8.1875 2.125 C-4.87379 -0.08414 -3.8428979 -0.09981553 0 0 Z " fill="#13A8A1" transform="translate(402.1875,614.875)"/>
<path d="M0 0 C0.90105469 0.02707031 1.80210937 0.05414062 2.73046875 0.08203125 C3.76107422 0.13423828 3.76107422 0.13423828 4.8125 0.1875 C4.23242188 0.63222656 3.65234375 1.07695313 3.0546875 1.53515625 C-0.24459599 5.43796721 -1.44763051 9.82453556 -3.0625 14.625 C-6.00692586 23.07150979 -9.1950032 31.17226021 -13.1875 39.1875 C-14.1775 38.8575 -15.1675 38.5275 -16.1875 38.1875 C-15.27150663 36.35551326 -14.31540567 34.54372305 -13.35546875 32.734375 C-10.88894607 27.79910052 -9.19192424 22.67914765 -7.5 17.4375 C-7.19255859 16.50550781 -6.88511719 15.57351563 -6.56835938 14.61328125 C-5.32632477 10.82466804 -4.11307769 7.06748614 -3.1875 3.1875 C-4.8375 3.1875 -6.4875 3.1875 -8.1875 3.1875 C-5.67753317 0.01043235 -3.96125134 -0.15433447 0 0 Z " fill="#2FB2AC" transform="translate(539.1875,614.8125)"/>
<path d="M0 0 C0.33 0.99 0.66 1.98 1 3 C4.63 3 8.26 3 12 3 C12 3.66 12 4.32 12 5 C7.59085217 6.10228696 3.51617599 6.07654536 -1 6 C-1.268125 6.86625 -1.53625 7.7325 -1.8125 8.625 C-2.97111987 11.91791964 -4.38209839 14.91127875 -6 18 C-4.35 18.33 -2.7 18.66 -1 19 C-3.49505962 21.49505962 -4.67328888 21.35948376 -8.125 21.625 C-9.03507813 21.69976563 -9.94515625 21.77453125 -10.8828125 21.8515625 C-11.93082031 21.92503906 -11.93082031 21.92503906 -13 22 C-12.278125 21.0925 -11.55625 20.185 -10.8125 19.25 C-7.77456823 15.05025297 -6.03582601 10.49741911 -4.2109375 5.671875 C-3.06821968 3.15052342 -2.09102328 1.76467861 0 0 Z " fill="#08A39D" transform="translate(654,637)"/>
<path d="M0 0 C2.31005869 2.31005869 2.72174103 3.83083657 3.625 6.9375 C3.88539063 7.81277344 4.14578125 8.68804688 4.4140625 9.58984375 C5 12 5 12 5 15 C1.7 15 -1.6 15 -5 15 C-4.37321829 11.33827525 -3.35548154 8.1181005 -1.9375 4.6875 C-1.39416016 3.36298828 -1.39416016 3.36298828 -0.83984375 2.01171875 C-0.56269531 1.34785156 -0.28554688 0.68398438 0 0 Z " fill="#EDF8F8" transform="translate(661,624)"/>
<path d="M0 0 C1.21236328 0.02707031 1.21236328 0.02707031 2.44921875 0.0546875 C3.37154297 0.08949219 3.37154297 0.08949219 4.3125 0.125 C3.9825 0.785 3.6525 1.445 3.3125 2.125 C2.3225 2.455 1.3325 2.785 0.3125 3.125 C-1.30638847 4.94553772 -1.30638847 4.94553772 -2.875 7.1875 C-7.72625592 13.62849094 -13.22560192 19.27857644 -19.6875 24.125 C-18.84244301 19.54709692 -16.09665847 17.26784067 -12.8125 14.1875 C-9.15036207 10.72978069 -6.0665071 7.6417862 -3.6875 3.125 C-5.0075 2.795 -6.3275 2.465 -7.6875 2.125 C-4.48369983 -0.01086678 -3.66810033 -0.10632175 0 0 Z " fill="#19AAA4" transform="translate(910.6875,613.875)"/>
<path d="M0 0 C0.90105469 0.01804687 1.80210937 0.03609375 2.73046875 0.0546875 C3.41753906 0.07789063 4.10460937 0.10109375 4.8125 0.125 C4.07644531 0.79917969 3.34039063 1.47335937 2.58203125 2.16796875 C-0.47789061 5.22789061 -2.44780677 8.65632423 -4.5 12.4375 C-4.85900391 13.08267578 -5.21800781 13.72785156 -5.58789062 14.39257812 C-6.46195475 15.96589355 -7.32580783 17.54487465 -8.1875 19.125 C-9.1775 19.125 -10.1675 19.125 -11.1875 19.125 C-7.7225 11.7 -7.7225 11.7 -4.1875 4.125 C-5.5075 3.465 -6.8275 2.805 -8.1875 2.125 C-4.87379 -0.08414 -3.8428979 -0.09981553 0 0 Z " fill="#19AAA3" transform="translate(721.1875,614.875)"/>
<path d="M0 0 C0.90105469 0.02707031 1.80210937 0.05414062 2.73046875 0.08203125 C3.76107422 0.13423828 3.76107422 0.13423828 4.8125 0.1875 C4.214375 0.661875 3.61625 1.13625 3 1.625 C0.02129642 5.11433848 -0.9567639 8.8239811 -2.1875 13.1875 C-2.8475 12.8575 -3.5075 12.5275 -4.1875 12.1875 C-3.8575 9.2175 -3.5275 6.2475 -3.1875 3.1875 C-4.8375 3.1875 -6.4875 3.1875 -8.1875 3.1875 C-5.67753317 0.01043235 -3.96125134 -0.15433447 0 0 Z " fill="#0FA6A0" transform="translate(539.1875,614.8125)"/>
<path d="M0 0 C0.99 0.66 1.98 1.32 3 2 C1.71636464 5.12835942 0.42174101 8.25205278 -0.875 11.375 C-1.23980469 12.26445313 -1.60460937 13.15390625 -1.98046875 14.0703125 C-2.33496094 14.92109375 -2.68945312 15.771875 -3.0546875 16.6484375 C-3.37937012 17.43395996 -3.70405273 18.21948242 -4.03857422 19.02880859 C-5 21 -5 21 -7 23 C-8.12798366 19.61604902 -7.94257288 19.20329642 -6.6015625 16.09375 C-6.28703125 15.34996094 -5.9725 14.60617187 -5.6484375 13.83984375 C-5.31070312 13.06769531 -4.97296875 12.29554688 -4.625 11.5 C-3.97069609 9.96903108 -3.31702478 8.43779161 -2.6640625 6.90625 C-2.36967285 6.22884766 -2.0752832 5.55144531 -1.77197266 4.85351562 C-1.10979191 3.26361168 -0.54463546 1.63390639 0 0 Z " fill="#20ADA6" transform="translate(502,629)"/>
<path d="M0 0 C1.17353592 3.48651569 1.01710962 3.9597751 -0.546875 7.63671875 C-1.26853765 8.99381597 -2.00343603 10.34394052 -2.75 11.6875 C-3.1109375 12.37650391 -3.471875 13.06550781 -3.84375 13.77539062 C-6.60873724 18.86957908 -6.60873724 18.86957908 -10 20 C-8.37260143 15.90020745 -6.70489251 11.81810986 -5 7.75 C-4.73960937 7.11320313 -4.47921875 6.47640625 -4.2109375 5.8203125 C-2.22835243 1.11417621 -2.22835243 1.11417621 0 0 Z " fill="#19AAA4" transform="translate(397,631)"/>
<path d="M0 0 C0.66 0.33 1.32 0.66 2 1 C1.125 5.75 1.125 5.75 0 8 C1.65 8.33 3.3 8.66 5 9 C2.50494038 11.49505962 1.32671112 11.35948376 -2.125 11.625 C-3.03507813 11.69976563 -3.94515625 11.77453125 -4.8828125 11.8515625 C-5.93082031 11.92503906 -5.93082031 11.92503906 -7 12 C-6.21625 10.948125 -5.4325 9.89625 -4.625 8.8125 C-2.59491421 5.98303198 -1.10887021 3.32661064 0 0 Z " fill="#1AAAA4" transform="translate(648,647)"/>
<path d="M0 0 C0.99 0.33 1.98 0.66 3 1 C1.44073252 2.58651682 -0.12256518 4.16907315 -1.6875 5.75 C-2.55761719 6.63171875 -3.42773438 7.5134375 -4.32421875 8.421875 C-6.78002468 10.78805298 -9.30141048 12.91892556 -12 15 C-11.58685438 10.55073948 -8.49538473 8.15899896 -5.4375 5.25 C-4.91736328 4.74339844 -4.39722656 4.23679687 -3.86132812 3.71484375 C-2.58089916 2.46965595 -1.29132446 1.23388498 0 0 Z " fill="#2DB1AC" transform="translate(903,623)"/>
<path d="M0 0 C0 0.33 0 0.66 0 1 C-0.99580078 1.23783203 -0.99580078 1.23783203 -2.01171875 1.48046875 C-7.85469136 3.0243783 -11.05740233 4.44137145 -15 9 C-15.66 9 -16.32 9 -17 9 C-13.80493494 1.5556606 -7.80663252 -2.27693449 0 0 Z " fill="#27AFA9" transform="translate(795,617)"/>
<path d="M0 0 C0.66 0.33 1.32 0.66 2 1 C1.44894091 4.9492568 0.61064629 8.34920174 -1 12 C-1.33 12 -1.66 12 -2 12 C-1.85831863 10.56208484 -1.71148957 9.1246763 -1.5625 7.6875 C-1.48128906 6.88699219 -1.40007813 6.08648438 -1.31640625 5.26171875 C-1 3 -1 3 0 0 Z " fill="#22ADA7" transform="translate(534,626)"/>
<path d="M0 0 C0.66 0.66 1.32 1.32 2 2 C0.576875 2.928125 0.576875 2.928125 -0.875 3.875 C-3.94445109 5.81970969 -3.94445109 5.81970969 -6 8 C-6.66 8 -7.32 8 -8 8 C-6.49776416 3.79373966 -3.71449966 2.26099979 0 0 Z " fill="#2AB0AA" transform="translate(840,617)"/>
<path d="M0 0 C0.6875 1.75 0.6875 1.75 1 4 C-0.3125 6.25 -0.3125 6.25 -2 8 C-2.66 8 -3.32 8 -4 8 C-3.40138258 5.64828869 -2.73075648 3.3140622 -2 1 C-1.34 0.67 -0.68 0.34 0 0 Z " fill="#23AEA7" transform="translate(397,631)"/>
<path d="M0 0 C0 0.66 0 1.32 0 2 C-1.98 2.99 -3.96 3.98 -6 5 C-6 4.34 -6 3.68 -6 3 C-7.98 3 -9.96 3 -12 3 C-12 2.67 -12 2.34 -12 2 C-10.37548581 1.66430703 -8.75037083 1.3315204 -7.125 1 C-6.22007812 0.814375 -5.31515625 0.62875 -4.3828125 0.4375 C-2 0 -2 0 0 0 Z " fill="#3DB7B2" transform="translate(859,653)"/>
</svg>
